<svg xmlns="http://www.w3.org/2000/svg" xmlns:xlink="http://www.w3.org/1999/xlink" version="1.1" x="0px" y="0px" viewBox="0 0 100 100" style="enable-background:new 0 0 100 100;" xml:space="preserve"><path d="M73.2,69.6l-6.4-14.5c4.4-3.5,5-7.3,5.4-14.5l0.1-1.3c0.3-6.3,0.7-14.1-3.9-18.9c-2.5-2.6-6.1-3.9-10.9-3.9  c-13.8,0-14.4,10.9-14.7,18.1c-0.1,1.4-0.1,2.7-0.3,3.8c-0.7,6.3-5,7.9-10.8,10.1l-1.2,0.4c-1.1,0.4-4.6,1.7-4.3,4.3  c0.1,1.3,1.1,3,6.9,4.5l-4.9,17c-0.2,0.8,0.2,1.6,1,1.9c0.1,0,0.3,0.1,0.4,0.1c0.7,0,1.3-0.4,1.4-1.1l2.8-9.7l8.3-6.4  c0.1-0.1,0.1-0.1,0.2-0.2c0.6,0.1,1.1,0.1,1.6,0.2l6.8,9.5c0.1,0.1,0.1,0.2,0.2,0.2l0.7,13.2c0,0.8,0.7,1.4,1.5,1.4c0,0,0.1,0,0.1,0  c0.8,0,1.5-0.7,1.4-1.6l-0.7-13.2l5.2-10.1c0.4-0.1,0.8-0.3,1.2-0.4l6.7,4.6l3.3,7.4c0.2,0.6,0.8,0.9,1.4,0.9c0.2,0,0.4,0,0.6-0.1  C73.2,71.2,73.6,70.4,73.2,69.6z M31.6,51.7l1.2-0.4c5.8-2.2,11.8-4.4,12.8-12.5c0.1-1.2,0.2-2.6,0.3-4c0.4-7.5,0.8-15.2,11.7-15.3  c0,0,0,0,0.1,0c3.9,0,6.7,1,8.6,3c3.7,3.8,3.3,11,3,16.7l-0.1,1.3C68.8,49,68,51.4,61.4,55c-5.4,3-10.9,2.6-22.2,0.9  c-7-1-9.4-2.4-10-2.9C29.5,52.8,30,52.3,31.6,51.7z M36,58.4c0.7,0.1,1.4,0.3,2.2,0.4l-3,2.3L36,58.4z M50.6,60.2l0.2,3.7L48,60  C48.9,60.1,49.8,60.1,50.6,60.2z M53.8,63.3l-0.2-3.1c0.6,0,1.3-0.1,1.9-0.2L53.8,63.3z M63.6,57.2c0.2-0.1,0.5-0.3,0.7-0.4l0.6,1.3  L63.6,57.2z"></path></svg>